<svg width="21" height="21" viewBox="0 0 21 21" fill="none" xmlns="http://www.w3.org/2000/svg">
<path d="M20.9588 13.3949C20.2936 15.5666 18.9604 17.4731 17.1489 18.8431C15.5585 20.0402 13.6659 20.7702 11.6836 20.9513C9.70133 21.1325 7.70779 20.7576 5.92675 19.8686C4.14571 18.9797 2.64768 17.612 1.60078 15.919C0.553884 14.226 -0.000431671 12.2747 5.03957e-05 10.2842C-0.00710648 7.96079 0.748198 5.69922 2.15009 3.84641C3.52016 2.03494 5.42666 0.701718 7.5983 0.0364775C7.74143 -0.00759392 7.89386 -0.0118141 8.03921 0.0242709C8.18456 0.0603559 8.31732 0.135381 8.42321 0.241277C8.52911 0.347173 8.60413 0.479933 8.64022 0.62528C8.6763 0.770628 8.67208 0.923062 8.62801 1.06619C8.15315 2.63694 8.11334 4.3071 8.51281 5.8987C8.91228 7.49029 9.73608 8.94369 10.8964 10.104C12.0568 11.2644 13.5102 12.0882 15.1017 12.4876C16.6933 12.8871 18.3635 12.8473 19.9343 12.3724C20.0774 12.3284 20.2298 12.3241 20.3752 12.3602C20.5205 12.3963 20.6533 12.4713 20.7592 12.5772C20.8651 12.6831 20.9401 12.8159 20.9762 12.9612C21.0123 13.1066 21.008 13.259 20.964 13.4021L20.9588 13.3949Z" fill="#F8F8F8"/>
</svg>
